<svg xmlns="http://www.w3.org/2000/svg" viewBox="0 0 1440 350"><g xmlns="http://www.w3.org/2000/svg" transform="matrix(0 1 -1 0 1440 -0)"><g xmlns="http://www.w3.org/2000/svg" transform="matrix(0 1 -1 0 350 -0)"><g xmlns="http://www.w3.org/2000/svg" transform="matrix(-1 0 0 -1 1440 350)"><defs><linearGradient id="sw-gradient-0" x1="0" x2="0" y1="1" y2="0"><stop stop-color="rgba(0, 107, 100, 0.8)" offset="0%" /><stop stop-color="rgba(0, 107, 100, 0.79)" offset="100%" /></linearGradient></defs><path style="transform:translate(0, 0px); opacity:1" fill="url(#sw-gradient-0)" d="M0,70L60,99.2C120,128,240,187,360,204.2C480,222,600,198,720,180.8C840,163,960,152,1080,169.2C1200,187,1320,233,1440,245C1560,257,1680,233,1800,227.5C1920,222,2040,233,2160,198.3C2280,163,2400,82,2520,40.8C2640,0,2760,0,2880,23.3C3000,47,3120,93,3240,105C3360,117,3480,93,3600,122.5C3720,152,3840,233,3960,250.8C4080,268,4200,222,4320,215.8C4440,210,4560,245,4680,233.3C4800,222,4920,163,5040,169.2C5160,175,5280,245,5400,245C5520,245,5640,175,5760,128.3C5880,82,6000,58,6120,81.7C6240,105,6360,175,6480,221.7C6600,268,6720,292,6840,297.5C6960,303,7080,292,7200,268.3C7320,245,7440,210,7560,180.8C7680,152,7800,128,7920,145.8C8040,163,8160,222,8280,204.2C8400,187,8520,93,8580,46.7L8640,0L8640,350L8580,350C8520,350,8400,350,8280,350C8160,350,8040,350,7920,350C7800,350,7680,350,7560,350C7440,350,7320,350,7200,350C7080,350,6960,350,6840,350C6720,350,6600,350,6480,350C6360,350,6240,350,6120,350C6000,350,5880,350,5760,350C5640,350,5520,350,5400,350C5280,350,5160,350,5040,350C4920,350,4800,350,4680,350C4560,350,4440,350,4320,350C4200,350,4080,350,3960,350C3840,350,3720,350,3600,350C3480,350,3360,350,3240,350C3120,350,3000,350,2880,350C2760,350,2640,350,2520,350C2400,350,2280,350,2160,350C2040,350,1920,350,1800,350C1680,350,1560,350,1440,350C1320,350,1200,350,1080,350C960,350,840,350,720,350C600,350,480,350,360,350C240,350,120,350,60,350L0,350Z" /><defs><linearGradient id="sw-gradient-1" x1="0" x2="0" y1="1" y2="0"><stop stop-color="rgba(5.242, 141.481, 132.568, 0.69)" offset="0%" /><stop stop-color="rgba(0, 107, 100, 0.8)" offset="100%" /></linearGradient></defs><path style="transform:translate(0, 50px); opacity:0.9" fill="url(#sw-gradient-1)" d="M0,315L60,280C120,245,240,175,360,169.2C480,163,600,222,720,210C840,198,960,117,1080,70C1200,23,1320,12,1440,58.3C1560,105,1680,210,1800,221.7C1920,233,2040,152,2160,99.2C2280,47,2400,23,2520,11.7C2640,0,2760,0,2880,46.7C3000,93,3120,187,3240,198.3C3360,210,3480,140,3600,93.3C3720,47,3840,23,3960,46.7C4080,70,4200,140,4320,192.5C4440,245,4560,280,4680,285.8C4800,292,4920,268,5040,233.3C5160,198,5280,152,5400,145.8C5520,140,5640,175,5760,175C5880,175,6000,140,6120,116.7C6240,93,6360,82,6480,116.7C6600,152,6720,233,6840,227.5C6960,222,7080,128,7200,110.8C7320,93,7440,152,7560,157.5C7680,163,7800,117,7920,122.5C8040,128,8160,187,8280,192.5C8400,198,8520,152,8580,128.3L8640,105L8640,350L8580,350C8520,350,8400,350,8280,350C8160,350,8040,350,7920,350C7800,350,7680,350,7560,350C7440,350,7320,350,7200,350C7080,350,6960,350,6840,350C6720,350,6600,350,6480,350C6360,350,6240,350,6120,350C6000,350,5880,350,5760,350C5640,350,5520,350,5400,350C5280,350,5160,350,5040,350C4920,350,4800,350,4680,350C4560,350,4440,350,4320,350C4200,350,4080,350,3960,350C3840,350,3720,350,3600,350C3480,350,3360,350,3240,350C3120,350,3000,350,2880,350C2760,350,2640,350,2520,350C2400,350,2280,350,2160,350C2040,350,1920,350,1800,350C1680,350,1560,350,1440,350C1320,350,1200,350,1080,350C960,350,840,350,720,350C600,350,480,350,360,350C240,350,120,350,60,350L0,350Z" /><defs><linearGradient id="sw-gradient-2" x1="0" x2="0" y1="1" y2="0"><stop stop-color="rgba(0, 130.097, 121.586, 0.91)" offset="0%" /><stop stop-color="rgba(0, 107, 100, 0.85)" offset="100%" /></linearGradient></defs><path style="transform:translate(0, 100px); opacity:0.8" fill="url(#sw-gradient-2)" d="M0,315L60,274.2C120,233,240,152,360,105C480,58,600,47,720,75.8C840,105,960,175,1080,215.8C1200,257,1320,268,1440,227.5C1560,187,1680,93,1800,99.2C1920,105,2040,210,2160,250.8C2280,292,2400,268,2520,250.8C2640,233,2760,222,2880,198.3C3000,175,3120,140,3240,157.5C3360,175,3480,245,3600,227.5C3720,210,3840,105,3960,99.2C4080,93,4200,187,4320,204.2C4440,222,4560,163,4680,163.3C4800,163,4920,222,5040,239.2C5160,257,5280,233,5400,233.3C5520,233,5640,257,5760,262.5C5880,268,6000,257,6120,239.2C6240,222,6360,198,6480,175C6600,152,6720,128,6840,145.8C6960,163,7080,222,7200,256.7C7320,292,7440,303,7560,268.3C7680,233,7800,152,7920,151.7C8040,152,8160,233,8280,221.7C8400,210,8520,105,8580,52.5L8640,0L8640,350L8580,350C8520,350,8400,350,8280,350C8160,350,8040,350,7920,350C7800,350,7680,350,7560,350C7440,350,7320,350,7200,350C7080,350,6960,350,6840,350C6720,350,6600,350,6480,350C6360,350,6240,350,6120,350C6000,350,5880,350,5760,350C5640,350,5520,350,5400,350C5280,350,5160,350,5040,350C4920,350,4800,350,4680,350C4560,350,4440,350,4320,350C4200,350,4080,350,3960,350C3840,350,3720,350,3600,350C3480,350,3360,350,3240,350C3120,350,3000,350,2880,350C2760,350,2640,350,2520,350C2400,350,2280,350,2160,350C2040,350,1920,350,1800,350C1680,350,1560,350,1440,350C1320,350,1200,350,1080,350C960,350,840,350,720,350C600,350,480,350,360,350C240,350,120,350,60,350L0,350Z" /><defs><linearGradient id="sw-gradient-3" x1="0" x2="0" y1="1" y2="0"><stop stop-color="rgba(0, 107, 100, 1)" offset="0%" /><stop stop-color="rgba(0, 107, 100, 0.43)" offset="100%" /></linearGradient></defs><path style="transform:translate(0, 150px); opacity:0.7" fill="url(#sw-gradient-3)" d="M0,140L60,151.7C120,163,240,187,360,210C480,233,600,257,720,250.8C840,245,960,210,1080,163.3C1200,117,1320,58,1440,75.8C1560,93,1680,187,1800,215.8C1920,245,2040,210,2160,215.8C2280,222,2400,268,2520,268.3C2640,268,2760,222,2880,192.5C3000,163,3120,152,3240,175C3360,198,3480,257,3600,245C3720,233,3840,152,3960,99.2C4080,47,4200,23,4320,46.7C4440,70,4560,140,4680,180.8C4800,222,4920,233,5040,239.2C5160,245,5280,245,5400,256.7C5520,268,5640,292,5760,285.8C5880,280,6000,245,6120,210C6240,175,6360,140,6480,145.8C6600,152,6720,198,6840,198.3C6960,198,7080,152,7200,116.7C7320,82,7440,58,7560,81.7C7680,105,7800,175,7920,210C8040,245,8160,245,8280,239.2C8400,233,8520,222,8580,215.8L8640,210L8640,350L8580,350C8520,350,8400,350,8280,350C8160,350,8040,350,7920,350C7800,350,7680,350,7560,350C7440,350,7320,350,7200,350C7080,350,6960,350,6840,350C6720,350,6600,350,6480,350C6360,350,6240,350,6120,350C6000,350,5880,350,5760,350C5640,350,5520,350,5400,350C5280,350,5160,350,5040,350C4920,350,4800,350,4680,350C4560,350,4440,350,4320,350C4200,350,4080,350,3960,350C3840,350,3720,350,3600,350C3480,350,3360,350,3240,350C3120,350,3000,350,2880,350C2760,350,2640,350,2520,350C2400,350,2280,350,2160,350C2040,350,1920,350,1800,350C1680,350,1560,350,1440,350C1320,350,1200,350,1080,350C960,350,840,350,720,350C600,350,480,350,360,350C240,350,120,350,60,350L0,350Z" /></g></g></g></svg>